<svg width="58" height="58" viewBox="0 0 58 58" fill="none" xmlns="http://www.w3.org/2000/svg">
<rect width="58" height="58" rx="8" fill="#1E252B"/>
<path d="M28.9985 22.0655C27.159 22.0655 25.3948 22.7962 24.094 24.097C22.7933 25.3978 22.0625 27.162 22.0625 29.0015C22.0625 30.841 22.7933 32.6052 24.094 33.906C25.3948 35.2067 27.159 35.9375 28.9985 35.9375C30.838 35.9375 32.6022 35.2067 33.903 33.906C35.2037 32.6052 35.9345 30.841 35.9345 29.0015C35.9345 27.162 35.2037 25.3978 33.903 24.097C32.6022 22.7962 30.838 22.0655 28.9985 22.0655V22.0655ZM28.9985 33.506C27.8034 33.506 26.6573 33.0313 25.8123 32.1862C24.9672 31.3412 24.4925 30.1951 24.4925 29C24.4925 27.8049 24.9672 26.6588 25.8123 25.8138C26.6573 24.9687 27.8034 24.494 28.9985 24.494C30.1936 24.494 31.3397 24.9687 32.1847 25.8138C33.0298 26.6588 33.5045 27.8049 33.5045 29C33.5045 30.1951 33.0298 31.3412 32.1847 32.1862C31.3397 33.0313 30.1936 33.506 28.9985 33.506V33.506Z" fill="white" fill-opacity="0.78"/>
<path d="M36.209 23.4275C37.102 23.4275 37.826 22.7036 37.826 21.8105C37.826 20.9175 37.102 20.1935 36.209 20.1935C35.316 20.1935 34.592 20.9175 34.592 21.8105C34.592 22.7036 35.316 23.4275 36.209 23.4275Z" fill="white" fill-opacity="0.78"/>
<path d="M41.7995 20.1665C41.4523 19.2698 40.9216 18.4554 40.2415 17.7756C39.5614 17.0958 38.7469 16.5654 37.85 16.2185C36.8005 15.8245 35.6918 15.6115 34.571 15.5885C33.1265 15.5255 32.669 15.5075 29.006 15.5075C25.343 15.5075 24.8735 15.5075 23.441 15.5885C22.3211 15.6103 21.2131 15.8234 20.165 16.2185C19.2679 16.565 18.4532 17.0952 17.773 17.7751C17.0929 18.455 16.5623 19.2695 16.2155 20.1665C15.8215 21.2159 15.6089 22.3248 15.587 23.4455C15.5225 24.8885 15.503 25.346 15.503 29.0105C15.503 32.6735 15.503 33.14 15.587 34.5755C15.6095 35.6975 15.821 36.8045 16.2155 37.856C16.5633 38.7527 17.0944 39.5669 17.7747 40.2467C18.455 40.9265 19.2696 41.4569 20.1665 41.804C21.2127 42.2138 22.3211 42.4421 23.444 42.479C24.8885 42.542 25.346 42.5615 29.009 42.5615C32.672 42.5615 33.1415 42.5615 34.574 42.479C35.6947 42.4562 36.8033 42.2437 37.853 41.8505C38.7496 41.5028 39.5639 40.972 40.244 40.292C40.924 39.6119 41.4548 38.7976 41.8025 37.901C42.197 36.851 42.4085 35.744 42.431 34.622C42.4955 33.179 42.515 32.7215 42.515 29.057C42.515 25.3925 42.515 24.9275 42.431 23.492C42.4135 22.3554 42.1999 21.2304 41.7995 20.1665V20.1665ZM39.9725 34.4645C39.9628 35.329 39.805 36.1854 39.506 36.9965C39.2807 37.5798 38.9359 38.1095 38.4936 38.5515C38.0513 38.9935 37.5214 39.3381 36.938 39.563C36.1358 39.8607 35.2885 40.0185 34.433 40.0295C33.008 40.0955 32.606 40.112 28.952 40.112C25.295 40.112 24.9215 40.112 23.4695 40.0295C22.6144 40.019 21.7675 39.8612 20.966 39.563C20.3805 39.3395 19.8485 38.9956 19.4043 38.5534C18.9602 38.1113 18.6138 37.5809 18.3875 36.9965C18.0927 36.1941 17.935 35.3478 17.921 34.493C17.8565 33.068 17.8415 32.666 17.8415 29.012C17.8415 25.3565 17.8415 24.983 17.921 23.5295C17.9307 22.6655 18.0885 21.8096 18.3875 20.999C18.845 19.8155 19.7825 18.884 20.966 18.431C21.7679 18.1342 22.6145 17.9765 23.4695 17.9645C24.896 17.9 25.2965 17.882 28.952 17.882C32.6075 17.882 32.9825 17.882 34.433 17.9645C35.2886 17.9748 36.136 18.1326 36.938 18.431C37.5214 18.6564 38.0512 19.0013 38.4935 19.4436C38.9357 19.8858 39.2806 20.4156 39.506 20.999C39.8008 21.8014 39.9585 22.6477 39.9725 23.5025C40.037 24.929 40.0535 25.3295 40.0535 28.985C40.0535 32.639 40.0535 33.032 39.989 34.466H39.9725V34.4645Z" fill="white" fill-opacity="0.78"/>
</svg>
