<svg width="58" height="58" viewBox="0 0 58 58" fill="none" xmlns="http://www.w3.org/2000/svg">
<rect width="58" height="58" rx="8" fill="#1E252B"/>
<path d="M40.4495 22.9955C40.469 23.258 40.469 23.519 40.469 23.78C40.469 31.7675 34.3895 40.9715 23.279 40.9715C19.856 40.9715 16.676 39.98 14 38.258C14.486 38.3135 14.954 38.333 15.4595 38.333C18.179 38.3396 20.8215 37.4302 22.961 35.7515C21.7001 35.7287 20.4779 35.3127 19.4649 34.5616C18.4519 33.8105 17.6987 32.7619 17.3105 31.562C17.684 31.6175 18.059 31.655 18.452 31.655C18.9935 31.655 19.538 31.58 20.0435 31.4495C18.6751 31.1732 17.4447 30.4315 16.5614 29.3505C15.6781 28.2695 15.1965 26.916 15.1985 25.52V25.445C16.004 25.8935 16.9385 26.174 17.9285 26.2115C17.0991 25.6604 16.4191 24.9125 15.949 24.0347C15.4789 23.1568 15.2335 22.1763 15.2345 21.1805C15.2345 20.0585 15.533 19.0295 16.0565 18.1325C17.5747 20 19.4683 21.5278 21.6145 22.617C23.7608 23.7061 26.1118 24.3323 28.5155 24.455C28.4225 24.005 28.3655 23.5385 28.3655 23.0705C28.3651 22.2769 28.5211 21.4911 28.8246 20.7579C29.1281 20.0246 29.5732 19.3584 30.1343 18.7973C30.6954 18.2362 31.3616 17.7911 32.0949 17.4876C32.8281 17.1841 33.6139 17.0281 34.4075 17.0285C36.1475 17.0285 37.718 17.7575 38.822 18.9365C40.1747 18.6749 41.4718 18.1811 42.656 17.477C42.2051 18.8732 41.2606 20.0572 39.9995 20.807C41.1992 20.6702 42.3717 20.3547 43.478 19.871C42.6517 21.0757 41.6278 22.132 40.4495 22.9955V22.9955Z" fill="white" fill-opacity="0.78"/>
</svg>
