<svg width="101" height="97" viewBox="0 0 101 97" fill="none" xmlns="http://www.w3.org/2000/svg">
<path d="M43.8456 6.57674L49.2783 14.5524C46.8353 15.9971 43.8518 18.489 40.3278 22.0283C37.016 25.4648 33.8823 29.4044 30.9266 33.8469C27.9709 38.2894 25.8298 42.9269 24.5031 47.7592C25.7145 47.8273 26.7412 47.9195 27.5831 48.0357C28.6371 48.0491 29.6364 48.22 30.5809 48.5483C34.0444 49.7521 36.5464 51.9451 38.0871 55.1273C39.8399 58.2067 40.005 61.793 38.5823 65.8862C36.9955 70.4516 34.3715 73.6861 30.7103 75.5896C27.1038 77.3357 23.254 77.4974 19.1608 76.0748C13.1786 73.9955 9.37917 70.2047 7.76269 64.7023C6.14621 59.2 6.43232 53.3002 8.62102 47.0031C10.1531 42.5951 12.5851 37.8823 15.9171 32.8648C19.4612 27.7445 23.6351 22.8431 28.4386 18.1606C33.2969 13.3207 38.4325 9.45938 43.8456 6.57674ZM87.2959 21.6788L92.7286 29.6544C90.2856 31.0991 87.3021 33.5911 83.7781 37.1303C80.4663 40.5669 77.3326 44.5064 74.3769 48.9489C71.4212 53.3915 69.2801 58.0289 67.9534 62.8612C69.1648 62.9294 70.1915 63.0215 71.0334 63.1377C72.0874 63.1511 73.0866 63.322 74.0312 63.6503C77.4947 64.8541 79.9967 67.0471 81.5374 70.2293C83.2902 73.3088 83.4553 76.8951 82.0326 80.9882C80.4458 85.5537 77.8218 88.7881 74.1606 90.6916C70.5541 92.4377 66.7043 92.5994 62.6111 91.1768C56.6289 89.0975 52.8295 85.3067 51.213 79.8044C49.5965 74.302 49.8826 68.4023 52.0713 62.1051C53.6034 57.6971 56.0354 52.9843 59.3674 47.9668C62.9115 42.8465 67.0854 37.9452 71.8889 33.2626C76.7472 28.4227 81.8828 24.5614 87.2959 21.6788Z" fill="url(#paint0_linear_55_51)"/>
<defs>
<linearGradient id="paint0_linear_55_51" x1="76.0004" y1="-22.954" x2="-45.7167" y2="171.717" gradientUnits="userSpaceOnUse">
<stop stop-color="#FCFCFC" stop-opacity="0"/>
<stop offset="1" stop-color="white" stop-opacity="0.5"/>
</linearGradient>
</defs>
</svg>
